<?xml version="1.0" encoding="utf-8"?>
<!-- Generator: Adobe Illustrator 23.1.0, SVG Export Plug-In . SVG Version: 6.00 Build 0)  -->
<svg version="1.1"
	 id="svg2" inkscape:export-filename="/home/sankalpo/Projects/2010-05-30 Inkscape Drawings/scroll.png" inkscape:export-xdpi="405.04999" inkscape:export-ydpi="405.04999" inkscape:version="0.91 r" sodipodi:docname="scroll.svg" xmlns:cc="http://creativecommons.org/ns#" xmlns:dc="http://purl.org/dc/elements/1.1/" xmlns:inkscape="http://www.inkscape.org/namespaces/inkscape" xmlns:rdf="http://www.w3.org/1999/02/22-rdf-syntax-ns#" xmlns:sodipodi="http://sodipodi.sourceforge.net/DTD/sodipodi-0.dtd" xmlns:svg="http://www.w3.org/2000/svg"
	 xmlns="http://www.w3.org/2000/svg" xmlns:xlink="http://www.w3.org/1999/xlink" x="0px" y="0px" viewBox="0 0 355.5 370.9"
	 style="enable-background:new 0 0 355.5 370.9;" xml:space="preserve">
<style type="text/css">
	.st0{fill-rule:evenodd;clip-rule:evenodd;fill:#ED1C24;}
	.st1{fill-rule:evenodd;clip-rule:evenodd;fill:#FFFFFF;}
	
		.st2{fill:none;stroke:#ED1C24;stroke-width:4;stroke-linecap:round;stroke-miterlimit:3.2;stroke-dasharray:24,8;stroke-dashoffset:9;}
	.st3{fill-rule:evenodd;clip-rule:evenodd;fill:#ED1C24;stroke:#ED1C24;stroke-width:1.5478;}
	.st4{fill:#ED1C24;}
	.st5{fill:#231F20;}
	.st6{fill:#FFFFFF;}
	.st7{fill:none;}
	.st8{font-family:'SegoePrint-Bold';}
	.st9{font-size:43px;}
	.st10{font-size:20px;}
</style>
<defs>
	
	<inkscape:path-effect  effect="spiro" id="path-effect3342" is_visible="true"></inkscape:path-effect>
</defs>
<sodipodi:namedview  bordercolor="#666666" borderopacity="1.0" fit-margin-bottom="0" fit-margin-left="0" fit-margin-right="0" fit-margin-top="0" id="base" inkscape:current-layer="layer1" inkscape:cx="438.19699" inkscape:cy="141.49303" inkscape:document-units="px" inkscape:object-nodes="true" inkscape:object-paths="true" inkscape:pageopacity="0.0" inkscape:pageshadow="2" inkscape:snap-global="false" inkscape:snap-intersection-paths="true" inkscape:window-height="1337" inkscape:window-maximized="1" inkscape:window-width="2560" inkscape:window-x="0" inkscape:window-y="0" inkscape:zoom="0.70000001" pagecolor="#ffffff" showgrid="false">
	</sodipodi:namedview>
<path id="path4177" inkscape:connector-curvature="0" class="st0" d="M261,138.8c-4.8,1.4-9.5,4-13,8.1l1.8,4.3l-4.1-1.1
	c-1.7,2.7-2.9,5.8-3.6,9.5c-2.2,11.8,2.1,33.4,2.3,39.6c0,0.3,0,0.5,0,0.8l3.3,2l-3.2,1.4c0.1,5.3-0.3,11-2.3,16
	c-3.7-2.4-8.5-0.9-10.5,1.7l2.8,3.7l-3.5,0.4l1.9,1.7L230,227c-0.2,2.4,0.2,4.8,1.9,6.6c19,4.4,38.2,9,57,13.3c0,0,0,0,0,0
	c0.1,0,0.5,0.2,0.7,0.2c-0.3-0.1-0.4-0.1-0.5-0.1c4.4,0.9,8.1-3.6,10.2-7.1c7.8-12.5,7.4-27,5.6-41c-0.2-1.5-0.4-3-0.6-4.6l-5-1
	l4-2.9l-5-1.1l4.9-3.3c-1-8.5-1.5-17.4,1-25c5.8-0.8,9.8,0.2,15.8,0.7c3.7,0.3,5.9-1.9,6.6-4.9l-3.7-2.3l3.8-2.3
	c-0.1-0.5-0.3-1.1-0.4-1.6c-1.9-5-6.8-6.2-10.7-7.2c-3.9-1-15.2-2.5-30.7-1.4S263.8,140.8,261,138.8L261,138.8z"/>
<path id="path4220" inkscape:connector-curvature="0" class="st0" d="M304.3,146.5l-4.8,8.4l18.2-2.8c-1.7,1.9-1.3,5.4,0.2,7.2
	c1.9,2.3,4.9,1.7,6.5-0.9c0.3-0.5,0.5-1.1,0.7-1.6l-3.4-2.1l3.7-2.2c-0.3-1.6-0.9-3.1-1.9-4.2c-0.6-0.6-1.2-1.1-1.9-1.3L304.3,146.5
	z"/>
<path id="path4181" inkscape:connector-curvature="0" sodipodi:nodetypes="czccscc" class="st1" d="M298.9,152.1
	c3.8,0.2,3.8,0.7,6.6,0.8c2.8,0.1,7.1-0.3,12.1-0.9c-2.6,3.9,0,8.3,2.4,8.6c-6-0.7-10.1-2.2-18-1.5c-2.5,0.2-3.9,0.3-7.5-0.3
	C295.4,157,298.1,154.2,298.9,152.1L298.9,152.1z"/>
<path id="path4199" inkscape:connector-curvature="0" sodipodi:nodetypes="ccccc" class="st0" d="M305.1,159c1.5-2.6,3.4-5,4.8-6.2
	l-4.1,0.1l-4.6,6.2L305.1,159z"/>
<path id="path3340" inkscape:connector-curvature="0" class="st1" d="M261.3,140.4c-5.5,1.8-9.6,4.3-12.4,7.4l1.8,4.4l-4.3-1.2
	c-7.7,12.3-2,31.2-1,49.2l3.4,2l-3.2,1.4c0.2,9-1.1,17.8-6.3,25.2c-0.9,1.3-3.1,3.8-6.1,3.8l56.2,13.2c3.5,0.3,6.3-2.8,7.3-4.2
	c10.1-13.1,8.3-30.5,6.3-46.9l-4.9-1l4-2.9l-5-1.1l4.8-3.3c-2.2-19-2.2-35.2,19.5-39.5C298.6,138.3,273.3,148.7,261.3,140.4z"/>
<path id="path4206" inkscape:connector-curvature="0" sodipodi:nodetypes="csssc" class="st2" d="M265.8,233.4c0,0,17,6.3,20.9-4.4
	c9.7-26.3-29.2-17.3-28.4-35.1c0.7-15.8,37.9-6.6,37-22c-1.1-19.3-24.1-8.4-24.1-8.4"/>
<path id="path4175" inkscape:connector-curvature="0" sodipodi:nodetypes="ccssszcccc" class="st0" d="M243.1,221.4l0.4-0.9
	c6.6,1.8,7.1,1.7,11.4,2.3c3.2,0.4,5.4,0.5,10.7,1.2c5.2,0.6,11.6,1.8,14.4,2.6c4.9,1.3,8.3,2.4,10,3.8c1.7,1.4,0.4,1.3,0.4,1.3
	l-20.8-2l-26.7-5.3L243.1,221.4z"/>
<path id="path3365" inkscape:connector-curvature="0" sodipodi:nodetypes="cssccc" class="st3" d="M292.6,234.9
	c-0.1-3.3-2.6-5.1-4.6-4.5c-2.8,0.9-4.2,5.3-3.5,9.2c0.6,3.3,2.6,5.7,4.8,6.1c-3.1-1-4.1-6.9-2.9-10.2
	C288.5,235.7,290.5,235.6,292.6,234.9z"/>
<path id="path4169" inkscape:connector-curvature="0" class="st0" d="M237.6,219c-1.9,0-3.5,1.2-4.7,2.9l2.4,3.1l-3.5,0.4l1.9,1.7
	l-2.5,0.2c-0.1,2,0.5,3.9,1.9,5.2c0,0,49.1,11.5,55.5,13c-5.8-1.9-5.7-16.1,1-15.2c-5-2-7.8-3.2-17.3-4.4
	c-9.5-1.2-23.6-2.5-34.4-6.9C237.8,219,237.7,219,237.6,219z M288.6,245.5c0.2,0.1,0.4,0.1,0.7,0.2
	C289.3,245.7,288.7,245.6,288.6,245.5z"/>
<path id="path4159" inkscape:connector-curvature="0" class="st1" d="M261.3,140.4c-5.6,1.8-9.6,4.3-12.4,7.4l1.8,4.4l-4.3-1.2
	c-0.8,1.3-1.5,2.8-2.1,4.2c4.4,2.5,10.3,6.1,15.2,6c11.4-0.5,13-3.2,25-7.7s27-5.1,36.8-6.6C298.6,138.3,273.3,148.7,261.3,140.4z"
	/>
<path id="path4173" inkscape:connector-curvature="0" sodipodi:nodetypes="czzcccc" class="st0" d="M284.5,238
	c0,0-11.2-0.2-18.1-1.6c-6.9-1.4-16.4-4.5-22.3-5.9s-12.8-2.4-12.8-2.4c0.1,1.7,0.7,3.3,1.8,4.4c0,0,50.7,11.9,56.2,13.2
	C286.3,245.3,284.6,241.7,284.5,238z"/>
<path id="path4166" inkscape:connector-curvature="0" sodipodi:nodetypes="ccscsc" class="st0" d="M237.9,219.1
	c-1.9-0.1-3.6,1-4.7,2.6c3.2,2.3,7.9,4.8,13.7,5.4c14.4,1.6,32,1.5,42.8,3.2c-5-2-7.8-3.2-17.3-4.4
	C262.8,224.7,248.7,223.4,237.9,219.1z"/>
<path id="rect4201" inkscape:connector-curvature="0" sodipodi:nodetypes="ccccccccccccc" class="st4" d="M256.5,152.5l-2,7.4
	l-5.7-3.3l-2.1,6.7l6.5,0.8l-2.4,6.9l6.7,2.1l-0.1-7.8l7.8,3.8l2.1-6.7l-8.1-0.9l4.1-6.8L256.5,152.5z"/>
<g>
	<path id="path4208" inkscape:connector-curvature="0" class="st5" d="M270,155.7c-4.4-7.6-14.1-10.2-21.7-5.8c0,0,0,0,0,0
		c-7.6,4.4-10.2,14.1-5.8,21.7l0,0c4.4,7.6,14.1,10.2,21.7,5.8c0,0,0,0,0,0C271.8,173,274.4,163.3,270,155.7L270,155.7z
		 M268.2,156.2c3.5,6.1,0.9,14.2-5.8,18.1c0,0,0,0,0,0c-6.7,3.9-15.1,2.1-18.6-4c-3.5-6.1-0.9-14.2,5.8-18.1
		C256.3,148.3,264.7,150.1,268.2,156.2z"/>
	<path id="rect4218" inkscape:connector-curvature="0" sodipodi:nodetypes="ccccc" class="st5" d="M241.8,168.5
		c0.2,2.5,0.8,3.4,2.6,4.8l-16.8,10.6c-3.1-0.3-5-2.6-3.6-6L241.8,168.5z"/>
</g>
<path id="path4213" inkscape:connector-curvature="0" class="st5" d="M270.3,155.6c-4.1-7.1-13.3-9.4-20.7-5.2c0,0,0,0,0,0
	c-7.3,4.2-9.9,13.4-5.8,20.5c4.1,7.1,13.3,9.4,20.7,5.2c0,0,0,0,0,0C271.7,171.8,274.3,162.7,270.3,155.6
	C270.3,155.6,270.3,155.6,270.3,155.6z M269.3,155.4c3.7,6.4,1,14.9-6,18.9c0,0,0,0,0,0c-7,4-15.7,2.1-19.4-4.3c0,0,0,0,0,0
	c-3.7-6.4-1-14.9,6-18.9c0,0,0,0,0,0C256.9,147,265.6,149,269.3,155.4z"/>
<path id="path4221" inkscape:connector-curvature="0" sodipodi:nodetypes="ccccc" class="st6" d="M240.1,169.7c0,1.6,0.4,2.2,1.6,3
	l-13.1,8.1c-2.2,0-3.5-1.4-2.2-3.8L240.1,169.7z"/>
<rect x="26.7" y="179.6" class="st7" width="223.9" height="50.7"/>
<text transform="matrix(1 0 0 1 26.7445 215.071)" class="st4 st8 st9">Pavement</text>
<text transform="matrix(1 0 0 1 79.3118 233.763)" class="st8 st10">Event Map</text>
</svg>
